<svg id="svg" version="1.1" xmlns="http://www.w3.org/2000/svg" xmlns:xlink="http://www.w3.org/1999/xlink" width="400" height="379.7598627787307" viewBox="0, 0, 400,379.7598627787307"><g id="svgg"><path id="path0" d="M192.609 4.031 C 143.168 62.574,80.383 106.256,1.715 136.841 L 0.172 137.441 0.061 139.990 C 0.001 141.392,0.052 143.658,0.176 145.026 L 0.402 147.513 196.574 147.513 L 392.747 147.513 392.964 145.712 C 393.084 144.721,393.133 142.455,393.075 140.676 L 392.967 137.442 391.424 136.842 C 313.129 106.385,250.425 62.873,201.266 4.889 C 198.987 2.200,196.872 -0.000,196.567 -0.000 C 196.262 -0.000,194.481 1.814,192.609 4.031 M200.007 6.346 C 226.541 37.540,262.968 69.341,298.027 91.922 C 300.150 93.289,301.887 94.478,301.887 94.565 C 301.887 94.652,301.771 94.655,301.630 94.572 C 260.809 70.536,222.297 40.259,200.206 14.837 C 198.361 12.714,196.732 10.978,196.584 10.978 C 196.437 10.978,194.379 13.182,192.011 15.876 C 170.881 39.917,134.805 68.512,96.587 91.512 C 89.236 95.936,89.162 95.765,96.398 91.079 C 131.353 68.442,168.315 36.016,193.492 5.898 C 195.090 3.986,196.488 2.456,196.597 2.498 C 196.707 2.539,198.241 4.271,200.007 6.346 M199.164 16.552 C 217.647 38.733,258.058 70.648,297.723 94.390 C 306.000 99.345,307.073 100.099,302.058 97.435 C 257.597 73.815,214.196 43.113,198.799 24.389 C 196.677 21.809,196.462 21.809,194.340 24.389 C 179.016 43.026,134.812 74.324,91.424 97.258 C 86.096 100.075,86.975 99.443,95.416 94.390 C 135.610 70.331,173.307 40.577,193.825 16.716 C 196.919 13.118,196.317 13.137,199.164 16.552 M200.299 28.835 C 220.683 50.559,262.930 79.412,310.463 104.072 C 313.954 105.883,316.705 107.367,316.578 107.370 C 316.097 107.382,296.502 97.866,286.621 92.822 C 244.540 71.342,214.679 52.111,200.614 37.433 C 198.604 35.335,196.817 33.619,196.642 33.619 C 196.468 33.619,194.103 35.829,191.387 38.530 C 176.230 53.603,147.885 71.723,106.175 93.004 C 96.644 97.867,76.324 107.727,75.864 107.711 C 75.742 107.708,78.422 106.270,81.818 104.518 C 127.959 80.709,168.746 53.188,190.223 31.372 C 193.619 27.923,196.475 25.087,196.569 25.072 C 196.664 25.056,198.342 26.750,200.299 28.835 M200.698 40.229 C 219.743 58.973,264.779 85.808,318.589 110.477 C 327.136 114.395,325.033 113.700,312.994 108.628 C 251.431 82.693,211.366 60.922,198.470 46.398 C 197.758 45.596,196.897 44.940,196.556 44.940 C 196.216 44.940,195.380 45.596,194.699 46.398 C 182.941 60.249,141.347 82.845,80.145 108.628 C 68.104 113.701,66.006 114.394,74.550 110.476 C 123.376 88.086,165.886 63.428,187.015 45.238 C 190.182 42.512,196.272 36.565,196.410 36.064 C 196.417 36.040,198.346 37.914,200.698 40.229 M199.971 50.515 C 216.484 66.328,261.598 89.753,326.664 116.298 C 333.589 119.124,330.104 118.039,318.311 113.698 C 249.970 88.541,213.104 71.436,199.428 58.539 L 196.569 55.843 193.719 58.539 C 180.086 71.435,144.005 88.168,74.640 113.764 C 67.296 116.474,61.225 118.630,61.150 118.554 C 61.074 118.478,61.371 118.305,61.809 118.169 C 63.446 117.661,89.859 106.557,99.383 102.372 C 148.729 80.691,181.608 62.384,194.158 49.602 C 196.839 46.872,196.035 46.745,199.971 50.515 M199.269 60.978 C 214.954 74.497,252.908 91.781,323.328 117.475 C 343.006 124.655,342.998 124.697,323.156 118.366 C 241.096 92.184,208.631 79.231,198.247 68.530 C 196.663 66.898,196.617 66.903,194.564 68.902 C 186.425 76.829,164.870 86.517,123.842 100.687 C 106.523 106.668,55.256 123.295,54.981 123.020 C 54.920 122.959,56.070 122.484,57.538 121.966 C 128.183 97.006,178.340 74.617,193.482 61.281 C 195.086 59.869,196.440 58.702,196.490 58.688 C 196.541 58.674,197.792 59.704,199.269 60.978 M198.406 71.238 C 209.947 81.687,243.545 94.900,323.053 120.258 C 334.223 123.820,343.311 126.786,343.248 126.849 C 343.062 127.035,289.653 112.494,271.527 107.323 C 228.103 94.935,204.104 85.875,198.135 79.616 C 197.581 79.035,196.876 78.559,196.569 78.559 C 196.263 78.559,195.558 79.035,195.004 79.616 C 187.633 87.344,158.126 97.547,87.822 116.677 C 76.029 119.886,62.459 123.584,57.665 124.896 C 52.872 126.207,48.902 127.232,48.843 127.173 C 48.784 127.115,55.408 124.942,63.562 122.345 C 150.112 94.780,185.376 80.985,195.179 70.861 C 196.624 69.368,196.298 69.330,198.406 71.238 M199.124 82.823 C 211.219 91.501,236.961 99.994,317.759 121.965 C 335.640 126.827,350.215 130.860,350.147 130.928 C 350.079 130.996,346.024 130.136,341.135 129.016 C 336.247 127.897,321.055 124.492,307.376 121.450 C 232.824 104.872,207.079 97.701,198.539 91.135 C 197.641 90.445,196.755 89.880,196.569 89.880 C 196.384 89.880,195.498 90.445,194.600 91.135 C 186.181 97.608,158.937 105.236,88.289 120.899 C 76.805 123.445,61.942 126.769,55.259 128.286 C 48.575 129.802,43.054 130.990,42.988 130.924 C 42.923 130.859,57.499 126.828,75.380 121.966 C 139.353 104.572,162.415 97.570,179.888 90.236 C 186.602 87.418,195.217 82.660,196.051 81.309 C 196.356 80.817,196.265 80.772,199.124 82.823 M198.050 93.102 C 206.496 99.445,232.370 106.605,306.518 123.118 C 323.499 126.899,341.397 130.925,346.291 132.064 C 351.185 133.202,355.340 134.134,355.525 134.134 C 355.709 134.134,355.780 134.214,355.682 134.312 C 355.584 134.411,350.039 133.493,343.360 132.272 C 336.682 131.052,321.801 128.418,310.292 126.420 C 227.906 112.117,204.308 106.899,197.530 101.489 L 196.604 100.750 195.472 101.612 C 188.415 106.985,164.724 112.205,82.883 126.420 C 71.393 128.415,56.511 131.047,49.812 132.268 C 43.113 133.489,37.553 134.408,37.455 134.311 C 37.358 134.213,37.430 134.134,37.614 134.134 C 37.799 134.134,41.954 133.202,46.848 132.064 C 51.742 130.925,69.640 126.899,86.621 123.118 C 160.316 106.706,188.190 98.982,195.197 93.032 C 196.303 92.094,196.722 92.104,198.050 93.102 M199.355 104.719 C 209.791 109.865,231.621 114.524,306.518 127.588 C 353.196 135.731,373.007 139.510,356.207 137.067 C 346.551 135.663,331.215 133.637,301.544 129.846 C 226.254 120.225,202.198 116.286,197.853 112.868 C 197.371 112.489,196.793 112.178,196.569 112.178 C 196.346 112.178,195.768 112.489,195.286 112.868 C 190.958 116.272,167.027 120.202,92.967 129.669 C 61.975 133.631,46.662 135.653,36.932 137.067 C 20.153 139.507,39.782 135.763,86.621 127.589 C 162.009 114.434,184.072 109.716,193.861 104.655 C 195.257 103.934,196.475 103.363,196.569 103.387 C 196.664 103.411,197.917 104.011,199.355 104.719 M200.367 115.900 C 210.206 119.343,234.165 123.066,302.230 131.729 C 327.862 134.992,347.819 137.650,359.004 139.292 C 364.097 140.040,368.484 140.652,368.752 140.652 C 369.020 140.652,369.155 140.737,369.051 140.840 C 368.948 140.944,366.645 140.791,363.934 140.500 C 355.329 139.577,333.601 137.667,299.314 134.820 C 226.712 128.792,202.490 126.195,197.739 123.930 C 196.659 123.415,196.480 123.415,195.400 123.930 C 190.649 126.195,166.427 128.792,93.825 134.820 C 59.538 137.667,37.810 139.577,29.205 140.500 C 26.494 140.791,24.191 140.944,24.088 140.840 C 23.984 140.737,24.119 140.652,24.387 140.652 C 24.655 140.652,29.042 140.040,34.135 139.292 C 45.315 137.651,65.263 134.993,90.909 131.729 C 163.297 122.515,190.092 118.205,195.513 114.905 C 196.176 114.501,196.644 114.597,200.367 115.900 M197.755 125.895 C 203.340 128.018,228.951 130.756,292.453 136.019 C 339.624 139.929,371.460 142.805,372.384 143.240 C 372.780 143.426,369.737 143.312,349.228 142.367 C 341.021 141.989,317.170 140.987,296.226 140.139 C 229.860 137.453,205.388 136.200,198.714 135.145 C 197.302 134.923,195.837 134.923,194.425 135.145 C 187.751 136.200,163.279 137.453,96.913 140.139 C 75.969 140.987,52.118 141.989,43.911 142.367 C 23.402 143.312,20.359 143.426,20.755 143.240 C 21.683 142.803,53.675 139.919,102.744 135.849 C 163.968 130.771,190.176 127.959,195.260 125.920 C 196.313 125.497,196.700 125.493,197.755 125.895 M200.172 137.032 C 208.691 138.140,230.272 139.226,299.314 142.022 C 345.498 143.892,375.961 145.276,377.873 145.591 C 378.250 145.653,296.664 145.704,196.569 145.704 C 96.475 145.704,14.889 145.653,15.266 145.591 C 17.177 145.276,47.613 143.893,93.825 142.021 C 162.225 139.251,184.706 138.123,192.453 137.072 C 194.245 136.829,195.866 136.610,196.055 136.585 C 196.244 136.561,198.096 136.762,200.172 137.032 M19.125 143.633 C 18.795 143.719,18.255 143.719,17.925 143.633 C 17.594 143.546,17.864 143.476,18.525 143.476 C 19.185 143.476,19.455 143.546,19.125 143.633 M375.214 143.633 C 374.884 143.719,374.344 143.719,374.014 143.633 C 373.684 143.546,373.954 143.476,374.614 143.476 C 375.274 143.476,375.545 143.546,375.214 143.633 " stroke="none" fill="#e79f30" fill-rule="evenodd"></path><path id="path1" d="M0.686 331.218 L 0.686 347.513 198.285 347.513 L 395.883 347.513 395.883 331.218 L 395.883 314.923 198.285 314.923 L 0.686 314.923 0.686 331.218 M18.735 323.938 C 19.436 324.639,18.454 325.471,17.331 325.127 C 14.807 324.352,13.346 326.949,15.324 328.695 C 18.679 331.656,19.211 332.321,19.211 333.558 C 19.211 336.735,16.438 338.450,13.257 337.240 C 12.261 336.862,12.336 335.356,13.336 335.652 C 15.466 336.281,15.748 336.255,16.654 335.350 C 17.802 334.202,17.593 332.950,16.050 331.732 C 12.717 329.102,11.903 327.332,13.045 325.198 C 13.789 323.808,17.732 322.935,18.735 323.938 M36.636 324.408 C 38.322 325.477,38.639 328.955,37.207 330.658 L 36.335 331.694 37.334 333.686 C 38.893 336.795,38.970 337.221,37.969 337.221 C 37.257 337.221,36.935 336.820,35.904 334.648 C 34.855 332.439,34.559 332.075,33.808 332.075 C 32.948 332.075,32.933 332.119,32.933 334.648 C 32.933 337.164,32.914 337.221,32.075 337.221 L 31.218 337.221 31.218 330.555 L 31.218 323.888 32.161 323.738 C 33.564 323.515,35.743 323.841,36.636 324.408 M75.939 323.937 C 76.873 324.619,76.322 325.615,75.179 325.312 C 72.233 324.529,70.676 326.250,70.671 330.294 C 70.667 333.494,71.684 335.695,73.242 335.857 C 74.736 336.012,74.786 335.930,74.786 333.276 C 74.786 330.760,74.805 330.703,75.643 330.703 C 76.498 330.703,76.501 330.716,76.501 333.947 L 76.501 337.190 75.281 337.419 C 71.030 338.216,68.954 335.838,68.954 330.171 C 68.954 324.999,72.754 321.608,75.939 323.937 M91.618 323.854 C 92.968 324.577,92.165 325.673,90.611 325.227 C 88.002 324.479,86.792 326.110,86.792 330.377 C 86.792 334.906,87.795 336.215,90.886 335.721 C 92.528 335.458,93.134 336.536,91.709 337.185 C 87.390 339.153,84.081 334.953,84.884 328.525 C 85.374 324.607,88.706 322.296,91.618 323.854 M159.876 324.061 C 160.543 324.728,159.451 325.589,158.319 325.289 C 155.450 324.527,154.545 325.755,154.545 330.406 C 154.545 334.849,155.080 335.682,157.926 335.669 C 160.945 335.656,161.050 337.133,158.054 337.471 C 153.480 337.986,150.646 331.158,153.292 325.996 C 154.435 323.767,158.413 322.598,159.876 324.061 M190.593 324.146 C 192.311 325.193,192.967 326.959,192.967 330.532 C 192.967 339.670,184.144 340.479,183.609 331.389 C 183.246 325.211,186.613 321.719,190.593 324.146 M200.413 323.856 C 203.078 324.596,204.117 328.398,202.259 330.606 L 201.430 331.591 202.587 333.978 C 203.967 336.825,204.017 337.221,202.991 337.221 C 202.359 337.221,201.964 336.726,200.936 334.648 C 199.857 332.469,199.531 332.075,198.802 332.075 C 197.960 332.075,197.942 332.130,197.942 334.648 C 197.942 337.164,197.923 337.221,197.084 337.221 L 196.226 337.221 196.226 330.555 L 196.226 323.888 197.170 323.745 C 198.858 323.489,199.125 323.498,200.413 323.856 M252.873 324.208 C 254.773 325.225,255.259 328.807,253.736 330.576 L 252.927 331.517 254.079 334.045 C 255.447 337.046,255.467 337.221,254.440 337.221 C 253.795 337.221,253.430 336.762,252.468 334.734 C 251.468 332.628,251.142 332.230,250.343 332.138 L 249.400 332.030 249.400 334.626 C 249.400 337.166,249.381 337.221,248.542 337.221 L 247.684 337.221 247.684 330.555 L 247.684 323.888 248.628 323.731 C 249.859 323.525,252.060 323.773,252.873 324.208 M325.328 323.878 C 326.643 324.477,326.165 325.674,324.741 325.346 C 321.479 324.596,320.412 325.880,320.412 330.555 C 320.412 333.635,321.056 335.313,322.412 335.760 C 324.259 336.369,324.528 336.050,324.528 333.251 C 324.528 330.762,324.548 330.703,325.386 330.703 C 326.747 330.703,326.727 336.712,325.364 337.230 C 321.561 338.675,318.749 336.237,318.430 331.218 C 318.059 325.388,321.233 322.012,325.328 323.878 M334.996 324.391 C 336.991 325.698,336.999 330.400,335.008 331.164 C 334.554 331.338,334.571 331.512,335.144 332.492 C 335.506 333.112,336.120 334.430,336.507 335.420 L 337.211 337.221 336.363 337.221 C 335.645 337.221,335.328 336.827,334.294 334.648 C 333.181 332.303,332.984 332.075,332.060 332.075 L 331.046 332.075 331.046 334.648 C 331.046 337.164,331.027 337.221,330.189 337.221 L 329.331 337.221 329.331 330.555 L 329.331 323.888 330.274 323.732 C 331.700 323.498,334.155 323.840,334.996 324.391 M370.511 324.021 C 374.044 325.848,373.991 335.243,370.437 337.081 C 366.765 338.980,363.659 336.020,363.644 330.606 C 363.628 324.974,366.685 322.042,370.511 324.021 M28.816 324.528 C 28.816 325.113,28.588 325.214,27.273 325.214 L 25.729 325.214 25.729 331.218 L 25.729 337.221 24.879 337.221 L 24.030 337.221 23.936 331.304 L 23.842 325.386 22.384 325.280 C 21.206 325.195,20.926 325.047,20.926 324.509 C 20.926 323.887,21.194 323.842,24.871 323.842 C 28.588 323.842,28.816 323.882,28.816 324.528 M47.148 326.672 C 47.963 329.360,49.741 336.415,49.742 336.964 C 49.744 337.886,48.062 337.120,47.858 336.106 C 47.379 333.731,47.446 333.791,45.283 333.791 C 43.120 333.791,43.187 333.731,42.708 336.106 C 42.505 337.119,40.816 337.889,40.826 336.964 C 40.831 336.471,42.803 328.799,43.559 326.329 C 44.724 322.526,45.926 322.640,47.148 326.672 M57.976 324.528 C 57.976 325.113,57.747 325.214,56.432 325.214 L 54.889 325.214 54.889 331.218 L 54.889 337.221 54.031 337.221 L 53.173 337.221 53.173 331.218 L 53.173 325.214 51.630 325.214 C 50.314 325.214,50.086 325.113,50.086 324.528 C 50.086 323.882,50.314 323.842,54.031 323.842 C 57.747 323.842,57.976 323.882,57.976 324.528 M66.552 324.528 C 66.552 325.144,66.324 325.214,64.322 325.214 L 62.093 325.214 62.093 327.273 L 62.093 329.331 63.979 329.331 C 65.763 329.331,65.866 329.378,65.866 330.189 C 65.866 331.000,65.763 331.046,63.979 331.046 L 62.093 331.046 62.093 333.448 L 62.093 335.849 64.494 335.849 C 66.667 335.849,66.895 335.914,66.895 336.535 C 66.895 337.173,66.667 337.221,63.636 337.221 L 60.377 337.221 60.377 330.532 L 60.377 323.842 63.465 323.842 C 66.324 323.842,66.552 323.893,66.552 324.528 M81.647 330.532 L 81.647 337.221 80.789 337.221 L 79.931 337.221 79.931 330.532 L 79.931 323.842 80.789 323.842 L 81.647 323.842 81.647 330.532 M103.289 326.329 C 104.051 328.877,105.996 336.502,106.001 336.964 C 106.008 337.653,104.292 337.177,104.145 336.449 C 103.547 333.504,103.801 333.748,101.449 333.860 L 99.318 333.962 99.022 335.592 C 98.758 337.038,97.082 338.226,97.084 336.964 C 97.085 336.414,98.874 329.359,99.693 326.672 C 100.924 322.634,102.147 322.518,103.289 326.329 M110.198 329.760 L 110.292 335.678 112.436 335.780 C 114.299 335.868,114.580 335.970,114.580 336.552 C 114.580 337.166,114.326 337.221,111.492 337.221 L 108.405 337.221 108.405 330.532 L 108.405 323.842 109.254 323.842 L 110.104 323.842 110.198 329.760 M118.774 329.760 L 118.868 335.678 121.012 335.780 C 122.875 335.868,123.156 335.970,123.156 336.552 C 123.156 337.166,122.902 337.221,120.069 337.221 L 116.981 337.221 116.981 330.532 L 116.981 323.842 117.831 323.842 L 118.680 323.842 118.774 329.760 M127.273 330.532 L 127.273 337.221 126.415 337.221 L 125.557 337.221 125.557 330.532 L 125.557 323.842 126.415 323.842 L 127.273 323.842 127.273 330.532 M135.596 324.443 C 136.305 326.937,137.977 333.321,138.382 335.077 L 138.876 337.221 137.921 337.221 C 137.035 337.221,136.950 337.099,136.739 335.506 L 136.512 333.791 134.326 333.791 L 132.140 333.791 131.904 335.506 C 131.668 337.222,130.017 338.252,130.017 336.683 C 130.017 335.714,132.859 324.966,133.344 324.099 C 133.643 323.566,135.425 323.837,135.596 324.443 M145.417 328.559 L 147.829 333.276 147.842 328.559 L 147.856 323.842 148.714 323.842 L 149.571 323.842 149.571 330.532 L 149.571 337.221 148.799 337.218 C 148.146 337.215,147.651 336.440,145.572 332.158 L 143.117 327.101 143.085 332.161 L 143.053 337.221 142.196 337.221 L 141.338 337.221 141.338 330.532 L 141.338 323.842 142.171 323.842 C 142.896 323.842,143.318 324.455,145.417 328.559 M168.782 324.512 C 168.782 325.094,168.501 325.195,166.638 325.284 L 164.494 325.386 164.392 327.341 L 164.289 329.296 166.278 329.399 C 169.256 329.554,169.257 330.823,166.280 330.978 L 164.292 331.081 164.393 333.379 L 164.494 335.678 166.810 335.779 C 168.844 335.868,169.125 335.962,169.125 336.551 C 169.125 337.169,168.871 337.221,165.866 337.221 L 162.607 337.221 162.607 330.532 L 162.607 323.842 165.695 323.842 C 168.528 323.842,168.782 323.897,168.782 324.512 M181.475 324.512 C 181.475 325.094,181.194 325.195,179.331 325.284 L 177.187 325.386 177.187 327.444 L 177.187 329.503 178.988 329.606 C 181.747 329.765,181.670 331.046,178.902 331.046 L 177.015 331.046 177.015 334.134 C 177.015 337.198,177.009 337.221,176.158 337.221 L 175.300 337.221 175.300 330.532 L 175.300 323.842 178.388 323.842 C 181.221 323.842,181.475 323.897,181.475 324.512 M210.787 325.129 C 211.194 327.422,212.769 333.949,213.034 334.442 C 213.253 334.849,214.691 329.556,215.612 324.957 C 215.838 323.825,217.496 323.229,217.496 324.280 C 217.496 324.860,215.620 332.387,214.827 334.991 C 214.152 337.209,212.369 338.220,211.921 336.639 C 211.192 334.065,209.536 327.744,209.131 325.986 L 208.637 323.842 209.598 323.842 C 210.438 323.842,210.587 324.003,210.787 325.129 M226.072 324.528 C 226.072 325.138,225.843 325.214,224.014 325.214 L 221.955 325.214 221.955 327.273 L 221.955 329.331 223.842 329.331 C 225.626 329.331,225.729 329.378,225.729 330.189 C 225.729 331.000,225.626 331.046,223.842 331.046 L 221.955 331.046 221.955 333.448 L 221.955 335.849 224.185 335.849 C 226.186 335.849,226.415 335.919,226.415 336.535 C 226.415 337.170,226.186 337.221,223.328 337.221 L 220.240 337.221 220.240 330.532 L 220.240 323.842 223.156 323.842 C 225.843 323.842,226.072 323.896,226.072 324.528 M236.021 324.509 C 236.021 325.047,235.741 325.195,234.563 325.280 L 233.105 325.386 233.011 331.304 L 232.917 337.221 232.067 337.221 L 231.218 337.221 231.218 331.218 L 231.218 325.214 229.846 325.214 C 228.702 325.214,228.473 325.100,228.473 324.528 C 228.473 323.884,228.702 323.842,232.247 323.842 C 235.755 323.842,236.021 323.889,236.021 324.509 M244.597 324.512 C 244.597 325.094,244.316 325.195,242.453 325.284 L 240.309 325.386 240.206 327.341 L 240.104 329.296 242.093 329.399 C 245.229 329.562,245.329 331.046,242.204 331.046 L 240.106 331.046 240.207 333.362 L 240.309 335.678 242.624 335.779 C 244.659 335.868,244.940 335.962,244.940 336.551 C 244.940 337.169,244.686 337.221,241.681 337.221 L 238.422 337.221 238.422 330.532 L 238.422 323.842 241.509 323.842 C 244.343 323.842,244.597 323.897,244.597 324.512 M263.541 326.072 C 264.334 328.676,266.209 336.204,266.209 336.784 C 266.209 338.175,264.557 337.159,264.272 335.592 L 263.975 333.962 261.864 333.861 L 259.753 333.760 259.525 334.890 C 259.093 337.034,258.978 337.221,258.101 337.221 C 257.444 337.221,257.286 337.081,257.426 336.621 C 257.526 336.291,257.773 335.249,257.975 334.305 C 258.177 333.362,258.901 330.614,259.584 328.198 L 260.826 323.807 261.870 323.910 C 262.822 324.005,262.968 324.193,263.541 326.072 M270.598 324.271 C 270.793 324.507,271.890 326.552,273.035 328.816 L 275.116 332.933 275.123 328.388 L 275.129 323.842 275.986 323.842 L 276.844 323.842 276.844 330.532 C 276.844 339.317,276.608 339.417,273.008 332.161 L 270.497 327.101 270.402 332.161 C 270.313 336.938,270.270 337.221,269.631 337.221 C 268.980 337.221,268.954 336.962,268.954 330.532 C 268.954 323.555,269.206 322.594,270.598 324.271 M285.763 330.532 L 285.763 337.221 284.906 337.221 L 284.048 337.221 284.048 330.532 L 284.048 323.842 284.906 323.842 L 285.763 323.842 285.763 330.532 M291.233 324.614 C 291.502 325.039,292.617 327.161,293.711 329.331 L 295.701 333.276 295.706 328.559 L 295.712 323.842 296.569 323.842 L 297.427 323.842 297.427 330.532 L 297.427 337.221 296.655 337.213 C 296.003 337.206,295.501 336.419,293.426 332.153 L 290.969 327.101 290.939 332.161 L 290.909 337.221 290.051 337.221 L 289.194 337.221 289.194 330.532 L 289.194 323.842 289.969 323.842 C 290.399 323.842,290.962 324.186,291.233 324.614 M307.376 324.528 C 307.376 325.100,307.147 325.214,306.003 325.214 L 304.631 325.214 304.631 331.218 L 304.631 337.221 303.602 337.221 L 302.573 337.221 302.573 331.218 L 302.573 325.214 301.201 325.214 C 300.057 325.214,299.828 325.100,299.828 324.528 C 299.828 323.884,300.057 323.842,303.602 323.842 C 307.147 323.842,307.376 323.884,307.376 324.528 M315.952 324.512 C 315.952 325.094,315.671 325.195,313.808 325.284 L 311.664 325.386 311.561 327.358 L 311.458 329.331 313.533 329.331 C 315.519 329.331,315.609 329.368,315.609 330.189 C 315.609 331.009,315.518 331.046,313.535 331.046 L 311.461 331.046 311.562 333.362 L 311.664 335.678 313.979 335.779 C 316.014 335.868,316.295 335.962,316.295 336.551 C 316.295 337.169,316.041 337.221,313.036 337.221 L 309.777 337.221 309.777 330.532 L 309.777 323.842 312.864 323.842 C 315.698 323.842,315.952 323.897,315.952 324.512 M345.739 327.530 C 346.322 329.558,347.021 332.144,347.292 333.276 C 348.309 337.527,348.305 337.221,347.337 337.221 C 346.403 337.221,346.313 337.079,345.977 335.061 L 345.761 333.759 343.635 333.861 L 341.509 333.962 341.195 335.592 C 340.926 336.980,340.761 337.221,340.080 337.221 C 339.090 337.221,339.091 337.144,340.114 332.933 C 342.713 322.235,343.892 321.102,345.739 327.530 M356.432 324.528 C 356.432 325.113,356.204 325.214,354.889 325.214 L 353.345 325.214 353.345 331.218 L 353.345 337.221 352.495 337.221 L 351.646 337.221 351.552 331.304 L 351.458 325.386 350.000 325.280 C 348.821 325.195,348.542 325.047,348.542 324.509 C 348.542 323.887,348.810 323.842,352.487 323.842 C 356.204 323.842,356.432 323.882,356.432 324.528 M360.549 330.532 L 360.549 337.221 359.691 337.221 L 358.834 337.221 358.834 330.532 L 358.834 323.842 359.691 323.842 L 360.549 323.842 360.549 330.532 M377.972 324.271 C 378.167 324.507,379.262 326.552,380.404 328.816 L 382.481 332.933 382.493 328.388 L 382.504 323.842 383.362 323.842 L 384.220 323.842 384.220 330.532 C 384.220 339.317,383.984 339.417,380.384 332.161 L 377.873 327.101 377.778 332.161 C 377.689 336.938,377.645 337.221,377.006 337.221 C 376.356 337.221,376.329 336.962,376.329 330.532 C 376.329 323.556,376.583 322.591,377.972 324.271 M187.411 325.218 C 184.609 326.347,184.785 335.382,187.617 335.792 C 190.099 336.151,191.081 334.661,191.081 330.532 C 191.081 327.051,189.729 324.379,188.228 324.893 C 188.193 324.905,187.825 325.051,187.411 325.218 M367.568 325.223 C 365.275 326.071,364.607 333.014,366.606 335.222 C 368.111 336.885,370.640 335.532,371.043 332.848 C 371.784 327.903,370.131 324.275,367.568 325.223 M32.933 327.986 L 32.933 330.758 34.048 330.519 C 37.241 329.837,37.092 325.238,33.877 325.220 L 32.933 325.214 32.933 327.986 M197.942 327.986 L 197.942 330.758 199.057 330.531 C 202.205 329.893,202.129 325.214,198.971 325.214 L 197.942 325.214 197.942 327.986 M249.400 327.986 L 249.400 330.758 250.515 330.531 C 253.663 329.893,253.587 325.214,250.429 325.214 L 249.400 325.214 249.400 327.986 M331.046 327.767 C 331.046 330.635,331.249 330.916,332.923 330.363 C 335.648 329.464,334.917 325.214,332.037 325.214 L 331.046 325.214 331.046 327.767 M100.583 329.122 C 100.168 330.705,99.828 332.095,99.828 332.210 C 99.828 332.324,100.611 332.419,101.567 332.419 C 103.059 332.419,103.281 332.334,103.134 331.818 C 103.039 331.488,102.697 330.214,102.374 328.988 C 101.550 325.869,101.434 325.878,100.583 329.122 M133.489 328.910 C 132.522 332.497,132.503 332.419,134.305 332.419 C 135.548 332.419,135.849 332.301,135.849 331.817 C 135.849 331.180,134.597 326.593,134.358 326.354 C 134.281 326.276,133.890 327.427,133.489 328.910 M261.597 326.623 C 261.413 327.146,260.034 332.176,260.034 332.326 C 260.034 332.377,260.806 332.419,261.750 332.419 C 262.693 332.419,263.465 332.328,263.465 332.218 C 263.465 330.799,261.841 325.933,261.597 326.623 M342.770 328.922 C 341.781 332.529,341.752 332.419,343.704 332.419 L 345.384 332.419 344.704 329.763 C 343.717 325.908,343.609 325.861,342.770 328.922 M44.308 329.287 C 43.901 330.772,43.568 332.084,43.568 332.203 C 43.568 332.321,44.350 332.419,45.306 332.419 C 46.802 332.419,47.019 332.335,46.865 331.818 C 46.766 331.488,46.428 330.176,46.114 328.902 C 45.387 325.957,45.210 325.995,44.308 329.287 " stroke="none" fill="#069cdc" fill-rule="evenodd"></path><path id="path2" d="M14.331 324.014 C 11.396 325.669,12.042 328.570,16.050 331.732 C 17.593 332.950,17.802 334.202,16.654 335.350 C 15.748 336.255,15.466 336.281,13.336 335.652 C 12.336 335.356,12.261 336.862,13.257 337.240 C 16.438 338.450,19.211 336.735,19.211 333.558 C 19.211 332.321,18.679 331.656,15.324 328.695 C 13.346 326.949,14.807 324.352,17.331 325.127 C 18.454 325.471,19.436 324.639,18.735 323.938 C 18.258 323.461,15.219 323.514,14.331 324.014 M32.161 323.738 L 31.218 323.888 31.218 330.555 L 31.218 337.221 32.075 337.221 C 32.914 337.221,32.933 337.164,32.933 334.648 C 32.933 332.119,32.948 332.075,33.808 332.075 C 34.559 332.075,34.855 332.439,35.904 334.648 C 36.935 336.820,37.257 337.221,37.969 337.221 C 38.970 337.221,38.893 336.795,37.334 333.686 L 36.335 331.694 37.207 330.658 C 40.075 327.249,36.958 322.975,32.161 323.738 M71.259 324.109 C 69.719 325.063,68.954 327.075,68.954 330.171 C 68.954 335.838,71.030 338.216,75.281 337.419 L 76.501 337.190 76.501 333.947 C 76.501 330.716,76.498 330.703,75.643 330.703 C 74.805 330.703,74.786 330.760,74.786 333.276 C 74.786 335.930,74.736 336.012,73.242 335.857 C 71.684 335.695,70.667 333.494,70.671 330.294 C 70.676 326.250,72.233 324.529,75.179 325.312 C 75.867 325.494,76.141 325.410,76.312 324.964 C 76.850 323.561,73.152 322.935,71.259 324.109 M87.489 323.938 C 83.929 325.739,83.783 334.785,87.280 336.917 C 89.172 338.072,92.733 337.541,92.372 336.158 C 92.230 335.615,91.990 335.545,90.886 335.721 C 87.795 336.215,86.792 334.906,86.792 330.377 C 86.792 326.110,88.002 324.479,90.611 325.227 C 91.678 325.533,92.259 325.264,92.276 324.455 C 92.295 323.548,88.969 323.189,87.489 323.938 M154.976 324.018 C 153.345 324.937,152.550 327.023,152.547 330.391 C 152.542 335.480,154.411 337.881,158.054 337.471 C 161.050 337.133,160.945 335.656,157.926 335.669 C 155.080 335.682,154.545 334.849,154.545 330.406 C 154.545 325.755,155.450 324.527,158.319 325.289 C 159.451 325.589,160.543 324.728,159.876 324.061 C 159.285 323.471,155.999 323.441,154.976 324.018 M186.411 323.835 C 182.748 325.315,182.479 334.723,186.037 336.892 C 189.808 339.191,192.967 336.291,192.967 330.532 C 192.967 325.040,190.264 322.279,186.411 323.835 M197.170 323.745 L 196.226 323.888 196.226 330.555 L 196.226 337.221 197.084 337.221 C 197.923 337.221,197.942 337.164,197.942 334.648 C 197.942 332.130,197.960 332.075,198.802 332.075 C 199.531 332.075,199.857 332.469,200.936 334.648 C 201.964 336.726,202.359 337.221,202.991 337.221 C 204.017 337.221,203.967 336.825,202.587 333.978 L 201.430 331.591 202.259 330.606 C 204.117 328.398,203.078 324.596,200.413 323.856 C 199.125 323.498,198.858 323.489,197.170 323.745 M248.628 323.731 L 247.684 323.888 247.684 330.555 L 247.684 337.221 248.542 337.221 C 249.381 337.221,249.400 337.166,249.400 334.626 L 249.400 332.030 250.343 332.138 C 251.142 332.230,251.468 332.628,252.468 334.734 C 253.430 336.762,253.795 337.221,254.440 337.221 C 255.467 337.221,255.447 337.046,254.079 334.045 L 252.927 331.517 253.736 330.576 C 256.623 327.220,253.423 322.931,248.628 323.731 M321.231 323.835 C 317.594 325.305,317.354 334.756,320.899 336.917 C 322.052 337.621,323.981 337.756,325.364 337.230 C 326.727 336.712,326.747 330.703,325.386 330.703 C 324.548 330.703,324.528 330.762,324.528 333.251 C 324.528 336.050,324.259 336.369,322.412 335.760 C 321.056 335.313,320.412 333.635,320.412 330.555 C 320.412 325.880,321.479 324.596,324.741 325.346 C 325.630 325.551,325.841 325.479,325.986 324.925 C 326.297 323.736,323.221 323.031,321.231 323.835 M330.274 323.732 L 329.331 323.888 329.331 330.555 L 329.331 337.221 330.189 337.221 C 331.027 337.221,331.046 337.164,331.046 334.648 L 331.046 332.075 332.060 332.075 C 332.984 332.075,333.181 332.303,334.294 334.648 C 335.328 336.827,335.645 337.221,336.363 337.221 L 337.211 337.221 336.507 335.420 C 336.120 334.430,335.506 333.112,335.144 332.492 C 334.571 331.512,334.554 331.338,335.008 331.164 C 336.314 330.663,336.962 327.557,336.139 325.750 C 335.415 324.160,332.910 323.299,330.274 323.732 M366.552 323.823 C 361.805 325.767,362.867 336.910,367.854 337.472 C 371.294 337.859,373.031 335.531,373.031 330.532 C 373.031 325.064,370.336 322.275,366.552 323.823 M20.926 324.509 C 20.926 325.047,21.206 325.195,22.384 325.280 L 23.842 325.386 23.936 331.304 L 24.030 337.221 24.879 337.221 L 25.729 337.221 25.729 331.218 L 25.729 325.214 27.273 325.214 C 28.588 325.214,28.816 325.113,28.816 324.528 C 28.816 323.882,28.588 323.842,24.871 323.842 C 21.194 323.842,20.926 323.887,20.926 324.509 M43.559 326.329 C 42.803 328.799,40.831 336.471,40.826 336.964 C 40.816 337.889,42.505 337.119,42.708 336.106 C 43.187 333.731,43.120 333.791,45.283 333.791 C 47.446 333.791,47.379 333.731,47.858 336.106 C 48.062 337.120,49.744 337.886,49.742 336.964 C 49.741 336.415,47.963 329.360,47.148 326.672 C 45.926 322.640,44.724 322.526,43.559 326.329 M50.086 324.528 C 50.086 325.113,50.314 325.214,51.630 325.214 L 53.173 325.214 53.173 331.218 L 53.173 337.221 54.031 337.221 L 54.889 337.221 54.889 331.218 L 54.889 325.214 56.432 325.214 C 57.747 325.214,57.976 325.113,57.976 324.528 C 57.976 323.882,57.747 323.842,54.031 323.842 C 50.314 323.842,50.086 323.882,50.086 324.528 M60.377 330.532 L 60.377 337.221 63.636 337.221 C 66.667 337.221,66.895 337.173,66.895 336.535 C 66.895 335.914,66.667 335.849,64.494 335.849 L 62.093 335.849 62.093 333.448 L 62.093 331.046 63.979 331.046 C 65.763 331.046,65.866 331.000,65.866 330.189 C 65.866 329.378,65.763 329.331,63.979 329.331 L 62.093 329.331 62.093 327.273 L 62.093 325.214 64.322 325.214 C 66.324 325.214,66.552 325.144,66.552 324.528 C 66.552 323.893,66.324 323.842,63.465 323.842 L 60.377 323.842 60.377 330.532 M79.931 330.532 L 79.931 337.221 80.789 337.221 L 81.647 337.221 81.647 330.532 L 81.647 323.842 80.789 323.842 L 79.931 323.842 79.931 330.532 M99.693 326.672 C 98.874 329.359,97.085 336.414,97.084 336.964 C 97.082 338.226,98.758 337.038,99.022 335.592 L 99.318 333.962 101.449 333.860 C 103.801 333.748,103.547 333.504,104.145 336.449 C 104.292 337.177,106.008 337.653,106.001 336.964 C 105.996 336.502,104.051 328.877,103.289 326.329 C 102.147 322.518,100.924 322.634,99.693 326.672 M108.405 330.532 L 108.405 337.221 111.492 337.221 C 114.326 337.221,114.580 337.166,114.580 336.552 C 114.580 335.970,114.299 335.868,112.436 335.780 L 110.292 335.678 110.198 329.760 L 110.104 323.842 109.254 323.842 L 108.405 323.842 108.405 330.532 M116.981 330.532 L 116.981 337.221 120.069 337.221 C 122.902 337.221,123.156 337.166,123.156 336.552 C 123.156 335.970,122.875 335.868,121.012 335.780 L 118.868 335.678 118.774 329.760 L 118.680 323.842 117.831 323.842 L 116.981 323.842 116.981 330.532 M125.557 330.532 L 125.557 337.221 126.415 337.221 L 127.273 337.221 127.273 330.532 L 127.273 323.842 126.415 323.842 L 125.557 323.842 125.557 330.532 M133.344 324.099 C 132.859 324.966,130.017 335.714,130.017 336.683 C 130.017 338.252,131.668 337.222,131.904 335.506 L 132.140 333.791 134.326 333.791 L 136.512 333.791 136.739 335.506 C 136.950 337.099,137.035 337.221,137.921 337.221 L 138.876 337.221 138.382 335.077 C 137.977 333.321,136.305 326.937,135.596 324.443 C 135.425 323.837,133.643 323.566,133.344 324.099 M141.338 330.532 L 141.338 337.221 142.196 337.221 L 143.053 337.221 143.085 332.161 L 143.117 327.101 145.572 332.158 C 147.651 336.440,148.146 337.215,148.799 337.218 L 149.571 337.221 149.571 330.532 L 149.571 323.842 148.714 323.842 L 147.856 323.842 147.842 328.559 L 147.829 333.276 145.417 328.559 C 143.318 324.455,142.896 323.842,142.171 323.842 L 141.338 323.842 141.338 330.532 M162.607 330.532 L 162.607 337.221 165.866 337.221 C 168.871 337.221,169.125 337.169,169.125 336.551 C 169.125 335.962,168.844 335.868,166.810 335.779 L 164.494 335.678 164.393 333.379 L 164.292 331.081 166.280 330.978 C 169.257 330.823,169.256 329.554,166.278 329.399 L 164.289 329.296 164.392 327.341 L 164.494 325.386 166.638 325.284 C 168.501 325.195,168.782 325.094,168.782 324.512 C 168.782 323.897,168.528 323.842,165.695 323.842 L 162.607 323.842 162.607 330.532 M175.300 330.532 L 175.300 337.221 176.158 337.221 C 177.009 337.221,177.015 337.198,177.015 334.134 L 177.015 331.046 178.902 331.046 C 181.670 331.046,181.747 329.765,178.988 329.606 L 177.187 329.503 177.187 327.444 L 177.187 325.386 179.331 325.284 C 181.194 325.195,181.475 325.094,181.475 324.512 C 181.475 323.897,181.221 323.842,178.388 323.842 L 175.300 323.842 175.300 330.532 M209.131 325.986 C 209.536 327.744,211.192 334.065,211.921 336.639 C 212.369 338.220,214.152 337.209,214.827 334.991 C 215.620 332.387,217.496 324.860,217.496 324.280 C 217.496 323.229,215.838 323.825,215.612 324.957 C 214.691 329.556,213.253 334.849,213.034 334.442 C 212.769 333.949,211.194 327.422,210.787 325.129 C 210.587 324.003,210.438 323.842,209.598 323.842 L 208.637 323.842 209.131 325.986 M220.240 330.532 L 220.240 337.221 223.328 337.221 C 226.186 337.221,226.415 337.170,226.415 336.535 C 226.415 335.919,226.186 335.849,224.185 335.849 L 221.955 335.849 221.955 333.448 L 221.955 331.046 223.842 331.046 C 225.626 331.046,225.729 331.000,225.729 330.189 C 225.729 329.378,225.626 329.331,223.842 329.331 L 221.955 329.331 221.955 327.273 L 221.955 325.214 224.014 325.214 C 225.843 325.214,226.072 325.138,226.072 324.528 C 226.072 323.896,225.843 323.842,223.156 323.842 L 220.240 323.842 220.240 330.532 M228.473 324.528 C 228.473 325.100,228.702 325.214,229.846 325.214 L 231.218 325.214 231.218 331.218 L 231.218 337.221 232.067 337.221 L 232.917 337.221 233.011 331.304 L 233.105 325.386 234.563 325.280 C 235.741 325.195,236.021 325.047,236.021 324.509 C 236.021 323.889,235.755 323.842,232.247 323.842 C 228.702 323.842,228.473 323.884,228.473 324.528 M238.422 330.532 L 238.422 337.221 241.681 337.221 C 244.686 337.221,244.940 337.169,244.940 336.551 C 244.940 335.962,244.659 335.868,242.624 335.779 L 240.309 335.678 240.207 333.362 L 240.106 331.046 242.204 331.046 C 245.329 331.046,245.229 329.562,242.093 329.399 L 240.104 329.296 240.206 327.341 L 240.309 325.386 242.453 325.284 C 244.316 325.195,244.597 325.094,244.597 324.512 C 244.597 323.897,244.343 323.842,241.509 323.842 L 238.422 323.842 238.422 330.532 M259.584 328.198 C 258.901 330.614,258.177 333.362,257.975 334.305 C 257.773 335.249,257.526 336.291,257.426 336.621 C 257.286 337.081,257.444 337.221,258.101 337.221 C 258.978 337.221,259.093 337.034,259.525 334.890 L 259.753 333.760 261.864 333.861 L 263.975 333.962 264.272 335.592 C 264.528 336.999,264.680 337.221,265.389 337.221 C 266.420 337.221,266.419 337.189,265.188 332.238 C 263.294 324.615,263.060 324.028,261.870 323.910 L 260.826 323.807 259.584 328.198 M268.954 330.532 C 268.954 336.962,268.980 337.221,269.631 337.221 C 270.270 337.221,270.313 336.938,270.402 332.161 L 270.497 327.101 273.008 332.161 C 276.608 339.417,276.844 339.317,276.844 330.532 L 276.844 323.842 275.986 323.842 L 275.129 323.842 275.123 328.388 L 275.116 332.933 273.035 328.816 C 269.288 321.405,268.954 321.545,268.954 330.532 M284.048 330.532 L 284.048 337.221 284.906 337.221 L 285.763 337.221 285.763 330.532 L 285.763 323.842 284.906 323.842 L 284.048 323.842 284.048 330.532 M289.194 330.532 L 289.194 337.221 290.051 337.221 L 290.909 337.221 290.939 332.161 L 290.969 327.101 293.426 332.153 C 295.501 336.419,296.003 337.206,296.655 337.213 L 297.427 337.221 297.427 330.532 L 297.427 323.842 296.569 323.842 L 295.712 323.842 295.706 328.559 L 295.701 333.276 293.711 329.331 C 291.108 324.169,290.885 323.842,289.969 323.842 L 289.194 323.842 289.194 330.532 M299.828 324.528 C 299.828 325.100,300.057 325.214,301.201 325.214 L 302.573 325.214 302.573 331.218 L 302.573 337.221 303.602 337.221 L 304.631 337.221 304.631 331.218 L 304.631 325.214 306.003 325.214 C 307.147 325.214,307.376 325.100,307.376 324.528 C 307.376 323.884,307.147 323.842,303.602 323.842 C 300.057 323.842,299.828 323.884,299.828 324.528 M309.777 330.532 L 309.777 337.221 313.036 337.221 C 316.041 337.221,316.295 337.169,316.295 336.551 C 316.295 335.962,316.014 335.868,313.979 335.779 L 311.664 335.678 311.562 333.362 L 311.461 331.046 313.535 331.046 C 315.518 331.046,315.609 331.009,315.609 330.189 C 315.609 329.368,315.519 329.331,313.533 329.331 L 311.458 329.331 311.561 327.358 L 311.664 325.386 313.808 325.284 C 315.671 325.195,315.952 325.094,315.952 324.512 C 315.952 323.897,315.698 323.842,312.864 323.842 L 309.777 323.842 309.777 330.532 M341.844 326.672 C 340.909 329.625,339.281 336.050,339.280 336.792 C 339.279 338.164,340.893 337.151,341.195 335.592 L 341.509 333.962 343.635 333.861 L 345.761 333.759 345.977 335.061 C 346.313 337.079,346.403 337.221,347.337 337.221 C 348.115 337.221,348.188 337.116,347.998 336.278 C 344.974 322.941,343.670 320.905,341.844 326.672 M348.542 324.509 C 348.542 325.047,348.821 325.195,350.000 325.280 L 351.458 325.386 351.552 331.304 L 351.646 337.221 352.495 337.221 L 353.345 337.221 353.345 331.218 L 353.345 325.214 354.889 325.214 C 356.204 325.214,356.432 325.113,356.432 324.528 C 356.432 323.882,356.204 323.842,352.487 323.842 C 348.810 323.842,348.542 323.887,348.542 324.509 M358.834 330.532 L 358.834 337.221 359.691 337.221 L 360.549 337.221 360.549 330.532 L 360.549 323.842 359.691 323.842 L 358.834 323.842 358.834 330.532 M376.329 330.532 C 376.329 336.962,376.356 337.221,377.006 337.221 C 377.645 337.221,377.689 336.938,377.778 332.161 L 377.873 327.101 380.384 332.161 C 383.984 339.417,384.220 339.317,384.220 330.532 L 384.220 323.842 383.362 323.842 L 382.504 323.842 382.493 328.388 L 382.481 332.933 380.404 328.816 C 376.664 321.403,376.329 321.544,376.329 330.532 M189.188 325.212 C 191.758 326.189,191.811 335.051,189.251 335.694 C 184.599 336.861,183.615 326.474,188.228 324.893 C 188.263 324.881,188.695 325.025,189.188 325.212 M370.464 326.317 C 371.559 328.071,371.340 333.811,370.128 335.113 C 367.517 337.915,364.660 333.769,365.626 328.578 C 366.291 325.001,368.885 323.789,370.464 326.317 M35.197 325.477 C 37.201 326.815,36.474 330.001,34.048 330.519 L 32.933 330.758 32.933 327.986 L 32.933 325.214 33.877 325.220 C 34.395 325.223,34.990 325.338,35.197 325.477 M200.686 325.901 C 202.185 327.399,201.239 330.089,199.057 330.531 L 197.942 330.758 197.942 327.986 L 197.942 325.214 198.971 325.214 C 199.543 325.214,200.305 325.519,200.686 325.901 M252.144 325.901 C 253.643 327.399,252.697 330.089,250.515 330.531 L 249.400 330.758 249.400 327.986 L 249.400 325.214 250.429 325.214 C 251.001 325.214,251.763 325.519,252.144 325.901 M333.773 325.817 C 335.232 326.999,334.714 329.773,332.923 330.363 C 331.249 330.916,331.046 330.635,331.046 327.767 L 331.046 325.214 332.037 325.214 C 332.583 325.214,333.364 325.486,333.773 325.817 M102.374 328.988 C 102.697 330.214,103.039 331.488,103.134 331.818 C 103.281 332.334,103.059 332.419,101.567 332.419 C 100.611 332.419,99.828 332.324,99.828 332.210 C 99.828 331.416,101.383 326.296,101.562 326.501 C 101.684 326.642,102.050 327.762,102.374 328.988 M135.174 328.855 C 136.161 332.307,136.134 332.419,134.305 332.419 C 133.346 332.419,132.762 332.265,132.762 332.013 C 132.762 331.330,134.208 326.203,134.358 326.354 C 134.436 326.431,134.803 327.557,135.174 328.855 M262.750 329.217 C 263.143 330.758,263.465 332.108,263.465 332.218 C 263.465 332.328,262.693 332.419,261.750 332.419 C 260.806 332.419,260.034 332.377,260.034 332.326 C 260.034 332.176,261.413 327.146,261.597 326.623 C 261.852 325.901,261.973 326.175,262.750 329.217 M344.704 329.763 L 345.384 332.419 343.704 332.419 C 341.752 332.419,341.781 332.529,342.770 328.922 C 343.609 325.861,343.717 325.908,344.704 329.763 M46.114 328.902 C 46.428 330.176,46.766 331.488,46.865 331.818 C 47.019 332.335,46.802 332.419,45.306 332.419 C 44.350 332.419,43.568 332.321,43.568 332.203 C 43.568 331.530,45.088 326.587,45.295 326.587 C 45.431 326.587,45.800 327.629,46.114 328.902 " stroke="none" fill="#f1f7fb" fill-rule="evenodd"></path><path id="path3" d="M50.680 166.034 C 20.617 168.942,3.364 182.423,4.574 202.058 C 5.707 220.445,20.050 233.008,52.584 244.109 C 61.966 247.311,67.916 249.953,72.630 253.012 C 96.964 268.801,85.504 293.654,53.890 293.654 C 35.511 293.654,20.755 288.394,14.233 279.517 L 13.551 278.587 8.323 281.575 C 2.366 284.979,2.596 284.625,4.658 287.216 C 17.875 303.834,66.002 308.605,91.424 295.818 C 104.648 289.167,111.223 277.589,109.765 263.519 C 107.805 244.594,94.310 233.298,60.549 222.322 C 32.171 213.096,21.167 196.704,34.560 183.608 C 46.662 171.775,80.847 172.594,96.180 185.084 C 97.455 186.122,98.267 186.563,98.570 186.381 C 100.624 185.152,107.718 179.899,107.714 179.610 C 107.699 178.272,98.057 172.813,91.938 170.677 C 80.730 166.766,63.341 164.809,50.680 166.034 M165.695 166.066 C 148.236 167.390,134.331 172.231,126.502 179.711 L 123.842 182.252 123.842 241.555 L 123.842 300.858 136.535 300.858 L 149.228 300.858 149.228 273.585 L 149.228 246.312 177.873 246.312 L 206.518 246.312 206.518 273.585 L 206.518 300.858 219.053 300.858 L 231.587 300.858 231.468 252.058 C 231.338 198.662,231.411 200.676,229.282 191.595 C 227.709 184.882,225.315 181.142,220.136 177.302 C 208.844 168.930,187.099 164.442,165.695 166.066 M368.439 233.641 L 368.439 300.858 380.961 300.858 L 393.484 300.858 393.397 235.260 L 393.310 169.662 381.990 168.216 C 375.763 167.421,370.167 166.692,369.554 166.597 L 368.439 166.424 368.439 233.641 M242.042 168.868 C 242.298 169.710,282.501 293.867,283.920 298.199 L 284.790 300.858 298.113 300.858 L 311.436 300.858 312.134 298.714 C 334.734 229.247,352.612 174.322,353.507 171.612 L 354.667 168.096 349.436 168.096 L 344.204 168.096 325.410 225.986 C 315.073 257.826,306.514 283.988,306.389 284.123 C 306.264 284.259,297.674 258.211,287.300 226.238 L 268.439 168.106 255.123 168.101 L 241.806 168.096 242.042 168.868 M181.918 175.812 C 192.342 177.630,200.086 182.603,203.296 189.540 C 205.397 194.081,206.178 202.039,206.419 221.355 L 206.610 236.707 177.919 236.707 L 149.228 236.707 149.228 207.882 L 149.228 179.057 150.106 178.723 C 152.827 177.689,161.027 176.047,166.038 175.533 C 169.564 175.172,179.219 175.341,181.918 175.812 " stroke="none" fill="#042464" fill-rule="evenodd"></path><path id="path4" d="M250.178 358.999 C 248.830 359.586,247.687 361.357,247.686 362.864 C 247.685 363.825,247.565 363.979,246.827 363.979 C 246.141 363.979,245.969 364.151,245.969 364.837 C 245.969 365.523,246.141 365.695,246.827 365.695 L 247.684 365.695 247.684 370.326 L 247.684 374.957 248.885 374.957 L 250.086 374.957 250.086 370.326 L 250.086 365.695 251.973 365.695 L 253.859 365.695 253.859 370.326 L 253.859 374.957 255.060 374.957 L 256.261 374.957 256.261 369.468 L 256.261 363.979 253.173 363.979 L 250.086 363.979 250.086 363.027 C 250.086 360.938,252.216 359.829,254.193 360.887 C 254.719 361.168,254.883 361.057,255.173 360.225 C 255.727 358.637,252.713 357.897,250.178 358.999 M171.870 366.895 L 171.870 374.957 173.041 374.957 L 174.212 374.957 174.327 370.981 C 174.455 366.584,174.904 365.695,177.000 365.695 C 178.785 365.695,179.229 366.698,179.367 371.047 L 179.491 374.957 180.510 374.957 L 181.528 374.957 181.416 370.297 L 181.304 365.637 180.140 364.598 C 178.792 363.394,176.227 363.345,174.954 364.497 C 174.277 365.110,174.271 365.088,174.271 361.974 L 174.271 358.834 173.070 358.834 L 171.870 358.834 171.870 366.895 M287.479 366.895 L 287.479 374.957 288.679 374.957 L 289.880 374.957 289.880 371.230 C 289.880 366.823,290.406 365.695,292.458 365.695 C 294.328 365.695,294.683 366.554,294.683 371.088 L 294.683 374.957 295.883 374.957 L 297.084 374.957 297.084 371.001 C 297.084 366.697,296.684 365.145,295.329 364.196 C 294.192 363.399,291.891 363.476,290.784 364.347 L 289.880 365.058 289.880 361.946 L 289.880 358.834 288.679 358.834 L 287.479 358.834 287.479 366.895 M8.580 359.971 C 3.928 361.452,2.149 369.106,5.586 372.850 C 7.363 374.785,11.943 375.658,15.266 374.693 L 16.295 374.394 16.392 370.559 L 16.489 366.724 13.905 366.724 L 11.321 366.724 11.321 367.753 C 11.321 368.725,11.397 368.782,12.693 368.782 L 14.065 368.782 14.065 370.804 C 14.065 373.017,13.864 373.242,11.880 373.242 C 7.563 373.242,4.807 368.301,6.926 364.359 C 8.146 362.088,9.483 361.491,12.918 361.684 C 15.669 361.839,15.718 361.827,15.877 360.999 C 16.149 359.573,11.768 358.956,8.580 359.971 M45.299 360.015 C 44.469 361.015,44.994 362.093,46.312 362.093 C 47.305 362.093,47.532 361.956,47.625 361.302 C 47.759 360.355,47.144 359.520,46.312 359.520 C 45.981 359.520,45.525 359.743,45.299 360.015 M79.441 365.266 C 82.743 375.576,82.375 374.786,83.863 374.786 L 85.157 374.786 87.861 367.238 C 89.348 363.087,90.565 359.643,90.565 359.585 C 90.566 359.526,89.996 359.526,89.300 359.585 L 88.034 359.691 85.972 365.747 L 83.910 371.803 82.792 368.149 C 82.177 366.139,81.337 363.375,80.924 362.007 L 80.174 359.520 78.888 359.520 L 77.602 359.520 79.441 365.266 M200.772 359.747 C 200.447 359.878,200.343 361.745,200.343 367.439 L 200.343 374.957 203.442 374.957 C 208.228 374.957,209.917 373.933,210.213 370.852 C 210.367 369.248,210.300 369.065,209.127 367.893 L 207.878 366.643 208.742 365.779 C 210.572 363.948,209.715 360.878,207.096 359.886 C 206.131 359.520,201.582 359.420,200.772 359.747 M327.015 359.728 C 326.691 359.873,326.587 361.755,326.587 367.439 L 326.587 374.957 329.720 374.957 C 337.652 374.957,341.735 369.016,338.092 362.775 C 336.633 360.275,329.920 358.429,327.015 359.728 M31.647 361.589 C 31.084 361.815,30.875 362.181,30.875 362.939 C 30.875 363.820,30.743 363.979,30.017 363.979 C 29.331 363.979,29.160 364.151,29.160 364.837 C 29.160 365.523,29.331 365.695,30.017 365.695 L 30.875 365.695 30.875 369.563 C 30.875 374.524,32.012 376.074,34.962 375.138 C 36.183 374.750,35.927 373.242,34.640 373.242 C 33.270 373.242,32.933 372.324,32.933 368.588 L 32.933 365.695 34.477 365.695 C 35.895 365.695,36.021 365.625,36.021 364.837 C 36.021 364.049,35.895 363.979,34.477 363.979 L 32.933 363.979 32.933 362.607 C 32.933 361.155,32.864 361.100,31.647 361.589 M38.851 361.589 C 38.288 361.815,38.079 362.181,38.079 362.939 C 38.079 363.820,37.948 363.979,37.221 363.979 C 36.535 363.979,36.364 364.151,36.364 364.837 C 36.364 365.513,36.538 365.695,37.184 365.695 C 37.995 365.695,38.006 365.741,38.131 369.672 C 38.288 374.630,39.653 376.254,42.682 375.092 C 43.689 374.706,43.358 373.242,42.264 373.242 C 40.702 373.242,40.480 372.722,40.480 369.057 L 40.480 365.695 41.852 365.695 C 43.087 365.695,43.225 365.609,43.225 364.837 C 43.225 364.065,43.087 363.979,41.852 363.979 L 40.480 363.979 40.480 362.607 C 40.480 361.167,40.253 361.025,38.851 361.589 M103.345 361.589 C 102.782 361.815,102.573 362.181,102.573 362.939 C 102.573 363.820,102.442 363.979,101.715 363.979 C 101.029 363.979,100.858 364.151,100.858 364.837 C 100.858 365.515,101.031 365.695,101.686 365.695 C 102.507 365.695,102.515 365.728,102.629 369.670 C 102.772 374.589,104.635 376.700,107.327 374.995 C 108.046 374.539,107.481 373.242,106.564 373.242 C 105.211 373.242,104.974 372.619,104.974 369.057 L 104.974 365.695 106.346 365.695 C 107.581 365.695,107.719 365.609,107.719 364.837 C 107.719 364.065,107.581 363.979,106.346 363.979 L 104.974 363.979 104.974 362.607 C 104.974 361.167,104.747 361.025,103.345 361.589 M165.780 361.589 C 165.218 361.815,165.009 362.181,165.009 362.939 C 165.009 363.820,164.877 363.979,164.151 363.979 C 163.465 363.979,163.293 364.151,163.293 364.837 C 163.293 365.515,163.467 365.695,164.121 365.695 C 164.943 365.695,164.951 365.728,165.065 369.670 C 165.195 374.175,165.826 375.306,168.201 375.295 C 170.240 375.285,171.034 373.560,169.122 373.295 C 167.571 373.079,167.410 372.683,167.410 369.083 L 167.410 365.695 168.782 365.695 C 170.017 365.695,170.154 365.609,170.154 364.837 C 170.154 364.065,170.017 363.979,168.782 363.979 L 167.410 363.979 167.410 362.607 C 167.410 361.167,167.183 361.025,165.780 361.589 M205.805 361.620 C 208.793 362.662,207.224 366.038,203.751 366.038 L 202.744 366.038 202.744 363.865 C 202.744 361.031,203.186 360.707,205.805 361.620 M260.463 361.589 C 259.901 361.815,259.691 362.181,259.691 362.939 C 259.691 363.820,259.560 363.979,258.834 363.979 C 258.148 363.979,257.976 364.151,257.976 364.837 C 257.976 365.523,258.148 365.695,258.834 365.695 L 259.691 365.695 259.691 369.563 C 259.691 374.524,260.828 376.074,263.778 375.138 C 264.986 374.755,264.746 373.242,263.477 373.242 C 262.056 373.242,261.750 372.454,261.750 368.805 L 261.750 365.695 263.122 365.695 C 264.357 365.695,264.494 365.609,264.494 364.837 C 264.494 364.065,264.357 363.979,263.122 363.979 L 261.750 363.979 261.750 362.607 C 261.750 361.155,261.680 361.100,260.463 361.589 M281.389 361.589 C 280.827 361.815,280.617 362.181,280.617 362.939 C 280.617 363.820,280.486 363.979,279.760 363.979 C 279.074 363.979,278.902 364.151,278.902 364.837 C 278.902 365.523,279.074 365.695,279.760 365.695 L 280.617 365.695 280.623 369.383 C 280.629 374.383,281.651 375.890,284.539 375.165 C 285.941 374.813,285.775 373.320,284.319 373.178 C 282.964 373.046,282.757 372.448,282.710 368.525 L 282.676 365.695 284.220 365.695 C 285.638 365.695,285.763 365.625,285.763 364.837 C 285.763 364.049,285.638 363.979,284.220 363.979 L 282.676 363.979 282.676 362.607 C 282.676 361.155,282.606 361.100,281.389 361.589 M334.305 362.207 C 339.222 365.012,336.805 372.681,330.853 373.159 L 328.645 373.336 328.645 367.482 C 328.645 362.202,328.704 361.611,329.245 361.455 C 330.281 361.156,333.232 361.595,334.305 362.207 M21.009 364.321 C 17.674 366.354,17.551 372.375,20.800 374.504 C 22.736 375.773,27.810 375.230,27.534 373.785 C 27.378 372.969,27.306 372.950,25.077 373.137 C 22.487 373.354,21.172 372.633,20.730 370.755 L 20.509 369.811 24.320 369.811 L 28.130 369.811 28.130 368.422 C 28.130 364.539,24.284 362.324,21.009 364.321 M54.202 363.880 C 53.919 363.984,53.418 364.304,53.087 364.592 C 52.547 365.063,52.487 365.058,52.487 364.547 C 52.487 364.145,52.187 363.979,51.458 363.979 L 50.429 363.979 50.429 369.468 L 50.429 374.957 51.630 374.957 L 52.830 374.957 52.830 371.072 C 52.830 366.800,53.332 365.688,55.254 365.700 C 57.157 365.712,57.633 366.839,57.633 371.333 L 57.633 374.957 58.868 374.957 L 60.103 374.957 59.979 370.583 C 59.806 364.531,58.032 362.472,54.202 363.880 M64.459 364.415 C 59.199 367.929,63.352 377.339,68.897 374.472 L 69.983 373.910 69.983 374.964 C 69.983 377.370,68.406 377.982,63.979 377.294 C 62.769 377.105,62.828 378.981,64.044 379.317 C 70.254 381.037,72.365 378.608,72.377 369.726 L 72.384 363.979 71.355 363.979 C 70.789 363.979,70.326 364.138,70.326 364.331 C 70.326 364.533,69.894 364.460,69.314 364.160 C 67.835 363.395,65.828 363.500,64.459 364.415 M92.690 364.331 C 89.250 366.428,89.429 372.707,92.980 374.528 C 94.958 375.542,99.485 375.372,99.485 374.283 C 99.485 373.172,99.066 372.971,97.125 373.147 C 94.599 373.376,93.110 372.685,92.696 371.093 L 92.408 369.983 96.335 369.886 L 100.262 369.789 100.051 368.250 C 99.494 364.187,95.988 362.320,92.690 364.331 M111.149 364.408 C 105.830 368.039,109.108 376.023,115.553 375.136 C 118.815 374.688,119.023 372.733,115.768 373.116 C 112.781 373.467,111.676 372.884,110.994 370.595 C 110.770 369.845,110.820 369.833,114.646 369.737 L 118.525 369.640 118.410 368.096 C 118.120 364.213,114.287 362.266,111.149 364.408 M123.752 364.319 C 123.019 364.896,122.854 364.923,122.688 364.491 C 122.572 364.188,122.053 363.979,121.415 363.979 C 120.574 363.979,120.384 364.098,120.546 364.522 C 120.661 364.821,120.755 367.290,120.755 370.011 L 120.755 374.957 121.784 374.957 L 122.813 374.957 122.814 371.784 C 122.814 367.929,123.420 366.384,125.129 365.881 C 126.042 365.612,126.244 365.380,126.244 364.595 C 126.244 363.405,125.079 363.276,123.752 364.319 M128.756 364.137 C 127.437 364.711,127.456 366.257,128.778 365.894 C 131.103 365.254,132.002 365.278,132.724 366.000 C 133.897 367.173,133.640 367.639,131.679 367.899 C 129.394 368.202,128.098 368.890,127.450 370.143 C 125.678 373.569,129.304 376.674,132.676 374.618 C 133.586 374.063,133.791 374.032,133.791 374.448 C 133.791 374.785,134.138 374.957,134.820 374.957 L 135.849 374.957 135.849 371.001 C 135.849 364.311,133.525 362.063,128.756 364.137 M141.767 364.319 C 140.857 364.873,140.652 364.905,140.652 364.489 C 140.652 364.152,140.304 363.979,139.623 363.979 L 138.593 363.979 138.593 369.468 L 138.593 374.957 139.794 374.957 L 140.995 374.957 140.995 371.230 C 140.995 366.823,141.521 365.695,143.573 365.695 C 145.443 365.695,145.798 366.554,145.798 371.088 L 145.798 374.957 146.998 374.957 L 148.199 374.957 148.199 371.001 C 148.199 364.363,145.793 361.864,141.767 364.319 M152.438 363.977 C 149.530 365.150,150.035 368.391,153.391 370.087 C 155.264 371.033,155.780 371.860,155.046 372.744 C 154.561 373.329,152.569 373.402,151.578 372.871 C 150.759 372.433,150.724 372.456,150.425 373.650 C 150.210 374.506,150.298 374.599,151.671 374.968 C 157.283 376.479,160.160 371.092,155.113 368.523 C 152.573 367.229,152.267 364.981,154.697 365.470 C 156.740 365.881,156.853 365.863,157.150 365.083 C 157.623 363.839,154.562 363.120,152.438 363.977 M186.964 363.860 C 183.440 365.275,182.528 371.342,185.454 373.911 C 187.575 375.774,192.514 375.739,192.731 373.860 L 192.838 372.935 190.437 373.136 C 188.100 373.332,188.008 373.310,186.986 372.287 C 184.928 370.230,185.388 369.811,189.708 369.811 L 193.482 369.811 193.482 368.600 C 193.482 365.084,190.080 362.610,186.964 363.860 M215.094 363.879 C 211.487 365.197,210.740 371.729,213.911 374.223 C 215.884 375.776,220.667 375.520,220.862 373.851 L 220.968 372.935 218.616 373.132 C 215.964 373.355,214.657 372.649,214.212 370.755 L 213.991 369.811 217.802 369.811 L 221.612 369.811 221.612 368.422 C 221.612 364.920,218.390 362.674,215.094 363.879 M227.273 364.032 C 226.895 364.239,226.394 364.650,226.158 364.945 C 225.782 365.417,225.729 365.390,225.729 364.731 C 225.729 364.125,225.530 363.979,224.700 363.979 L 223.671 363.979 223.671 369.468 L 223.671 374.957 224.842 374.957 L 226.013 374.957 226.128 370.981 C 226.256 366.584,226.705 365.695,228.801 365.695 C 230.560 365.695,230.987 366.660,231.154 371.024 L 231.304 374.957 232.317 374.957 L 233.329 374.957 233.217 370.297 L 233.105 365.637 231.984 364.637 C 230.774 363.556,228.643 363.283,227.273 364.032 M238.593 363.947 C 231.849 366.939,236.137 376.931,243.310 374.939 C 245.923 374.214,245.122 372.895,242.217 373.138 C 239.904 373.332,239.808 373.308,238.787 372.287 C 236.729 370.230,237.189 369.811,241.509 369.811 L 245.283 369.811 245.283 368.600 C 245.283 364.990,241.762 362.541,238.593 363.947 M267.265 364.524 C 265.201 366.261,265.930 368.738,268.916 370.137 C 272.553 371.840,270.509 374.396,266.824 372.754 C 266.372 372.553,266.185 372.705,266.006 373.419 C 265.741 374.473,266.116 374.830,267.839 375.162 C 273.379 376.229,275.307 370.339,270.095 368.268 C 269.308 367.956,268.579 367.480,268.476 367.212 C 267.964 365.876,269.449 365.035,271.168 365.689 C 272.226 366.091,272.711 365.757,272.722 364.620 C 272.734 363.323,268.775 363.253,267.265 364.524 M301.610 364.331 C 298.198 366.411,298.423 373.012,301.961 374.618 C 303.994 375.541,308.405 375.312,308.405 374.283 C 308.405 373.184,307.971 372.942,306.346 373.134 C 303.524 373.469,301.544 372.425,301.544 370.604 C 301.544 369.824,301.603 369.811,305.317 369.811 L 309.091 369.811 309.083 368.696 C 309.056 364.673,304.966 362.284,301.610 364.331 M343.119 364.331 C 339.679 366.428,339.857 372.707,343.409 374.528 C 345.386 375.542,349.914 375.372,349.914 374.283 C 349.914 373.172,349.495 372.971,347.553 373.147 C 345.028 373.376,343.538 372.685,343.125 371.093 L 342.837 369.983 346.764 369.886 L 350.691 369.789 350.480 368.250 C 349.923 364.187,346.417 362.320,343.119 364.331 M353.414 364.488 C 351.278 366.286,351.889 368.571,354.911 370.089 C 358.420 371.852,356.920 374.323,353.200 372.909 C 352.421 372.613,352.299 372.674,352.102 373.460 C 351.848 374.469,352.244 374.834,353.945 375.162 C 359.355 376.204,361.393 370.246,356.294 368.298 C 354.500 367.613,353.917 366.538,354.932 365.785 C 355.540 365.335,356.563 365.365,357.876 365.873 C 358.477 366.106,359.182 364.556,358.696 364.071 C 357.941 363.315,354.483 363.589,353.414 364.488 M363.780 363.950 C 360.420 365.397,359.616 371.406,362.449 373.894 C 364.588 375.772,369.529 375.749,369.747 373.860 L 369.853 372.935 367.453 373.136 C 365.115 373.332,365.024 373.310,364.001 372.287 C 361.943 370.230,362.403 369.811,366.724 369.811 L 370.497 369.811 370.497 368.600 C 370.497 364.977,367.007 362.560,363.780 363.950 M375.456 364.478 C 374.679 365.255,374.614 365.269,374.614 364.650 C 374.614 364.134,374.377 363.979,373.585 363.979 L 372.556 363.979 372.556 369.468 L 372.556 374.957 373.756 374.957 L 374.957 374.957 374.957 371.329 C 374.957 367.403,375.781 365.695,377.675 365.695 C 378.238 365.695,378.388 365.479,378.388 364.666 C 378.388 363.302,376.738 363.197,375.456 364.478 M392.761 364.415 C 389.929 366.307,389.468 371.206,391.873 373.846 C 393.670 375.818,399.957 375.663,399.433 373.660 C 399.250 372.962,399.091 372.919,397.415 373.116 C 394.423 373.468,393.324 372.885,392.637 370.583 C 392.408 369.815,392.426 369.811,396.203 369.811 L 400.000 369.811 400.000 368.405 C 400.000 364.409,396.038 362.226,392.761 364.415 M45.283 369.468 L 45.283 374.957 46.312 374.957 L 47.341 374.957 47.341 369.468 L 47.341 363.979 46.312 363.979 L 45.283 363.979 45.283 369.468 M309.917 364.568 C 310.028 364.916,310.956 367.280,311.980 369.822 C 314.076 375.025,314.041 375.636,311.563 377.187 C 310.248 378.011,310.133 379.517,311.372 379.693 C 313.328 379.972,315.188 377.171,318.207 369.404 C 320.409 363.738,320.378 363.979,318.891 363.979 L 317.714 363.979 316.421 367.906 L 315.129 371.832 313.715 367.992 L 312.301 364.151 311.009 364.043 C 309.885 363.949,309.743 364.017,309.917 364.568 M379.798 365.780 C 380.190 366.771,381.133 369.241,381.892 371.269 C 383.264 374.936,383.279 374.957,384.407 374.957 L 385.541 374.957 387.625 369.622 C 390.083 363.328,389.977 363.979,388.540 363.979 C 387.369 363.979,386.130 366.351,385.046 370.672 C 384.654 372.233,384.384 371.858,383.047 367.898 L 381.724 363.979 380.404 363.979 L 379.084 363.979 379.798 365.780 M24.513 365.565 C 24.995 365.750,26.072 367.368,26.072 367.907 C 26.072 368.011,24.833 368.096,23.319 368.096 L 20.566 368.096 21.089 367.084 C 21.871 365.571,23.104 365.024,24.513 365.565 M68.376 365.751 C 71.280 367.297,70.344 373.013,67.187 373.013 C 64.132 373.013,63.398 367.409,66.247 365.830 C 67.270 365.263,67.449 365.257,68.376 365.751 M96.928 366.194 C 98.444 367.709,98.092 368.096,95.197 368.096 C 92.315 368.096,92.037 367.801,93.466 366.259 C 94.526 365.115,95.825 365.091,96.928 366.194 M115.453 366.194 C 116.968 367.709,116.616 368.096,113.722 368.096 C 111.630 368.096,111.149 367.997,111.149 367.566 C 111.149 366.726,112.747 365.352,113.722 365.352 C 114.211 365.352,114.990 365.731,115.453 366.194 M190.038 365.687 C 190.383 365.872,190.828 366.490,191.027 367.060 L 191.388 368.096 188.694 368.096 C 186.157 368.096,186.010 368.055,186.181 367.402 C 186.581 365.870,188.656 364.948,190.038 365.687 M218.168 365.687 C 218.513 365.872,218.958 366.490,219.157 367.060 L 219.518 368.096 216.824 368.096 C 214.288 368.096,214.140 368.055,214.311 367.402 C 214.712 365.870,216.786 364.948,218.168 365.687 M242.196 366.038 C 243.680 367.522,243.153 368.096,240.309 368.096 C 237.426 368.096,237.223 367.870,238.739 366.354 C 239.917 365.176,241.215 365.057,242.196 366.038 M305.979 366.256 C 307.225 367.841,306.967 368.096,304.117 368.096 C 301.355 368.096,301.341 368.089,301.943 366.959 C 302.912 365.139,304.837 364.804,305.979 366.256 M347.357 366.194 C 348.872 367.709,348.520 368.096,345.626 368.096 C 342.744 368.096,342.466 367.801,343.894 366.259 C 344.955 365.115,346.254 365.091,347.357 366.194 M367.053 365.687 C 367.398 365.872,367.843 366.490,368.042 367.060 L 368.403 368.096 365.709 368.096 C 363.173 368.096,363.025 368.055,363.196 367.402 C 363.597 365.870,365.671 364.948,367.053 365.687 M396.845 365.952 C 398.626 367.493,398.218 368.096,395.392 368.096 C 392.473 368.096,392.119 367.712,393.638 366.194 C 394.627 365.205,395.872 365.111,396.845 365.952 M207.044 368.793 C 209.132 370.754,207.371 373.242,203.894 373.242 L 202.744 373.242 202.744 370.454 L 202.744 367.666 204.471 367.832 C 205.641 367.944,206.470 368.254,207.044 368.793 M133.448 370.593 C 133.448 372.756,131.554 374.074,130.004 372.988 C 128.895 372.212,129.232 370.804,130.703 370.069 C 132.643 369.100,133.448 369.254,133.448 370.593 " stroke="none" fill="#042464" fill-rule="evenodd"></path></g></svg>